<?xml version="1.0" encoding="utf-8"?>
<!-- Generator: Adobe Illustrator 22.0.0, SVG Export Plug-In . SVG Version: 6.00 Build 0)  -->
<svg version="1.1" xmlns="http://www.w3.org/2000/svg" xmlns:xlink="http://www.w3.org/1999/xlink" x="0px" y="0px"
	 viewBox="0 0 906.8 657.7" style="enable-background:new 0 0 906.8 657.7;" xml:space="preserve">
<style type="text/css">
	.st0{display:none;}
	.st1{fill:#814E25;}
	.st2{fill:#B98C65;}
	.st3{fill:#FFFFFF;}
	.st4{fill:#DCB88F;}
</style>
<g id="Symbol" class="st0">
</g>
<g id="Capa_4" class="st0">
</g>
<g id="Text">
	<g>
		<g>
			<path class="st1" d="M550.1,35.9c0,0,11.5-9.7,6.5-31.2c0,0,2.3,12.8-15.5,25.8L550.1,35.9z"/>
			<path class="st1" d="M476.2,22.4c-175.3,0-317.5,142.1-317.5,317.5c0,18.5,1.6,36.5,4.6,54.1c206.9-35.9,419.1-37.3,626.1-2.8
				c2.7-16.7,4.2-33.9,4.2-51.4C793.7,164.6,651.5,22.4,476.2,22.4z M237.1,548.7c58.2,66.6,143.7,108.7,239.1,108.7
				c95.4,0,181-42.1,239.2-108.7C557.2,525.5,395.3,525.5,237.1,548.7z"/>
			<path class="st2" d="M686.3,282.5c-4.4-16.8-10.6-31.7-17.4-44.4c-13.6-25.5-29.2-42.3-40.2-52.9c-10-9.5-16.5-14.1-17.7-15.1
				c25.1,20.6,45.4,46.9,58.6,76.2c13.3,29.3,19.3,61.6,17.9,93.2c-0.5,12.5-2.2,25-5.1,37.1c2.1,0.2,4.2,0.4,6.3,0.7
				c2.8-13.3,4.1-26.4,4.3-38.9C693.3,318.2,690.7,299.3,686.3,282.5z M280.8,243.2c-14.6,29-22,61.6-21.6,94
				c0.1,14.2,1.7,28.3,4.7,42.1c2.2-0.3,4.3-0.5,6.5-0.7c-3.5-14.6-5.3-29-5.6-42.7c-0.5-19.6,1.8-37.9,5.9-54.4
				c4.1-16.5,9.9-31.1,16.3-43.6c12.9-25.2,27.8-42.2,38.4-52.9c10.8-10.7,17.3-15.5,17.3-15.6C316.7,188.7,295.2,214.1,280.8,243.2
				z"/>
			<path class="st1" d="M81,587.4c0,0,88.1-15.7,154.5,16.3c-10.3-27.2-23.7-51-23.7-51S129.5,563.4,81,587.4z"/>
			<path class="st1" d="M874.3,587.4c0,0-88.1-15.7-154.5,16.3c10.3-27.2,23.7-51,23.7-51S825.8,563.4,874.3,587.4z"/>
			<path class="st2" d="M551.1,121.6l17-59.2L546.5,120C548,120.5,549.6,121,551.1,121.6z M538.1,54.2l-15.4,59.6
				c1.6,0.3,3.2,0.7,4.8,1L538.1,54.2z M491.3,48l-5.6,61.4c1.6,0.1,3.2,0.1,4.9,0.2L491.3,48z M507.3,49.3l-9,60.9
				c1.6,0.2,3.2,0.3,4.8,0.5L507.3,49.3z M522.3,51.2l-12.1,60.4c1.6,0.2,3.2,0.5,4.8,0.8L522.3,51.2z M539,117.8l13.7-60
				l-18.4,58.7C535.9,116.9,537.4,117.3,539,117.8z M605.6,148.8l31.9-52.7l-36,50C602.9,147,604.2,147.9,605.6,148.8z M562.2,125.7
				l20-58.2L557.7,124C559.2,124.5,560.7,125.1,562.2,125.7z M595.6,142.4l29.1-54.3l-33.3,51.8
				C592.8,140.7,594.2,141.5,595.6,142.4z M584.5,136.1l26.1-55.8l-30.4,53.5C581.7,134.6,583.1,135.3,584.5,136.1z M573.9,130.8
				l23.2-57l-27.6,55C570.9,129.4,572.4,130.1,573.9,130.8z M371.5,134.2l-30.6-53.4l26.3,55.7C368.7,135.7,370.1,134.9,371.5,134.2
				z M383,128.8l-27.6-55l23.2,57C380,130.1,381.5,129.4,383,128.8z M394,124.2l-24.8-56.4l20.2,58.1
				C391,125.4,392.5,124.8,394,124.2z M615.9,156.2l34.8-50.9l-38.7,48C613.3,154.2,614.6,155.2,615.9,156.2z M361.1,139.9
				l-33.3-51.8l29.1,54.3C358.3,141.5,359.7,140.7,361.1,139.9z M406,120l-21.6-57.6l17,59.2C402.9,121,404.4,120.5,406,120z
				 M441.5,111.7l-12.3-60.3l7.5,61.1C438.3,112.2,439.9,112,441.5,111.7z M466,109.4L460.2,48l1,61.6
				C462.7,109.5,464.4,109.4,466,109.4z M454.1,110.2l-9-60.9l4.1,61.5C450.9,110.5,452.5,110.3,454.1,110.2z M429.8,113.8
				l-15.4-59.6l10.6,60.6C426.6,114.5,428.2,114.1,429.8,113.8z M417.4,116.7L398.8,58l13.9,59.9
				C414.3,117.5,415.9,117.1,417.4,116.7z M478.7,109.2l-2.4-61.6l-2.4,61.6c0.8,0,1.6,0,2.4,0C477,109.1,477.9,109.2,478.7,109.2z
				 M625.2,163.7l37.4-49.1l-41.1,45.9C622.7,161.6,623.9,162.6,625.2,163.7z M699.8,282.6c0.4,1.6,0.8,3.2,1.2,4.7l59.3-17.1
				L699.8,282.6z M706.9,336l61.7-4.2l-61.8-0.7C706.9,332.7,706.9,334.4,706.9,336z M706.8,348.7l61.8-0.8l-61.7-4.1
				C706.9,345.4,706.9,347.1,706.8,348.7z M702.6,294.9c0.3,1.6,0.6,3.2,0.9,4.8l60.2-13.8L702.6,294.9z M705.2,311.5l60.8-10.7
				l-61.5,5.9C704.8,308.3,705,309.9,705.2,311.5z M706.4,324.1l61.4-7.4l-61.7,2.5C706.2,320.9,706.3,322.5,706.4,324.1z
				 M246.1,356.5l-61.4,7.5l61.8-2.6C246.3,359.7,246.2,358.1,246.1,356.5z M247.2,368.3l-60.9,10.6l61.5-5.8
				C247.6,371.5,247.4,369.9,247.2,368.3z M704.6,373.1l61.5,5.8l-60.9-10.6C705,369.9,704.8,371.5,704.6,373.1z M706,360.5
				l61.8,2.4l-61.4-7.3C706.3,357.3,706.2,358.9,706,360.5z M245.7,381.6c1.2-0.1,2.3-0.3,3.5-0.4c0-0.1,0-0.2-0.1-0.3L245.7,381.6z
				 M651.6,189.9l44.8-42.4l-48,38.8C649.4,187.4,650.5,188.7,651.6,189.9z M666.5,209.4l49-37.4l-51.8,33.4
				C664.7,206.7,665.6,208,666.5,209.4z M659.1,199.1l46.9-40.1l-49.9,36.2C657.1,196.6,658.1,197.9,659.1,199.1z M350.3,146.5
				l-36.1-49.9l32.1,52.6C347.6,148.3,348.9,147.4,350.3,146.5z M643.1,180.5l42.4-44.8L639.7,177
				C640.8,178.2,641.9,179.3,643.1,180.5z M634.6,172.1l40-46.9l-43.6,43.6C632.3,169.9,633.4,171,634.6,172.1z M682.6,236.6
				c0.7,1.5,1.4,2.9,2.1,4.4l54.3-29.2L682.6,236.6z M688,248.1c0.6,1.5,1.3,3,1.9,4.5l55.8-26.2L688,248.1z M692.4,259.1
				c0.6,1.5,1.1,3,1.7,4.6l57.1-23.3L692.4,259.1z M696.6,271.1c0.5,1.6,0.9,3.1,1.4,4.7l58.3-20.1L696.6,271.1z M673,219.4
				l50.9-34.8l-53.5,30.7C671.3,216.6,672.2,218,673,219.4z M677,226.1c0.8,1.4,1.6,2.8,2.4,4.3l52.7-32L677,226.1z M498.7,569.5
				l9.1,61.3l-4.3-61.9C501.9,569.2,500.3,569.4,498.7,569.5z M445.6,631l8.9-61.4c-1.6-0.2-3.3-0.3-4.9-0.5L445.6,631z
				 M460.7,632.2l5.7-61.8c-1.6-0.1-3.3-0.2-4.9-0.3L460.7,632.2z M486,570.4l5.7,61.8l-0.9-62C489.3,570.3,487.7,570.3,486,570.4z
				 M510.5,568.1l12.3,60.8l-7.4-61.5C513.7,567.6,512.1,567.9,510.5,568.1z M474.2,570.6l2.6,62l2.3-62c-1,0-1.9,0-2.9,0
				C475.5,570.6,474.9,570.6,474.2,570.6z M429.7,628.9l12.3-60.8c-1.6-0.2-3.2-0.5-4.8-0.8L429.7,628.9z M379.1,549.2l-23.3,57.4
				l27.7-55.4C382,550.6,380.6,549.9,379.1,549.2z M425.5,565l-10.6,61.1l15.4-60C428.7,565.7,427.1,565.4,425.5,565z M390,554
				l-20.3,58.5l24.8-56.8C393,555.2,391.5,554.6,390,554z M401.9,558.4l-17,59.5l21.7-58C405,559.4,403.4,558.9,401.9,558.4z
				 M413.2,561.9l-13.9,60.4l18.6-59.1C416.3,562.8,414.8,562.4,413.2,561.9z M580.4,545.8l30.7,53.8l-26.4-56.1
				C583.3,544.3,581.8,545.1,580.4,545.8z M603.5,536.1l34.4,47.7l-28.7-47.3C607.3,536.4,605.4,536.3,603.5,536.1z M591.5,539.8
				l33.6,52l-29.4-54.5C594.4,538.2,592.9,539,591.5,539.8z M621.2,537.6l29.9,37L626,538C624.4,537.9,622.8,537.7,621.2,537.6z
				 M662,541.7l13,13l-10.9-12.8C663.4,541.8,662.7,541.8,662,541.7z M639.6,539.3l23.3,26l-19.6-25.6
				C642.1,539.6,640.8,539.4,639.6,539.3z M557.9,555.7l24.8,56.8L562.5,554C561,554.6,559.4,555.2,557.9,555.7z M546.7,559.7
				l21.9,58l-17.2-59.5C549.8,558.6,548.3,559.2,546.7,559.7z M534.5,563.2l18.6,59.1l-13.9-60.4
				C537.7,562.4,536.1,562.8,534.5,563.2z M523,565.9l15.6,60l-10.8-61C526.2,565.2,524.6,565.6,523,565.9z M367.7,543.6l-26.4,56.1
				l30.7-53.8C370.6,545.1,369.2,544.3,367.7,543.6z M569.7,550.9l27.9,55.3l-23.4-57.3C572.6,549.6,571.1,550.3,569.7,550.9z
				 M357.4,537.7l-29.2,54.6l33.4-52.1C360.2,539.4,358.8,538.6,357.4,537.7z M281.6,215.9L228,185.4l51,34.7
				C279.9,218.6,280.7,217.3,281.6,215.9z M288.7,205.4L236.9,172l49,37.4C286.8,208,287.8,206.7,288.7,205.4z M340.5,153.3
				l-38.7-48l34.8,50.9C337.9,155.2,339.2,154.2,340.5,153.3z M262.6,252.6c0.6-1.5,1.2-3,1.9-4.5l-57.7-21.7L262.6,252.6z
				 M267.4,241.7c0.7-1.5,1.4-2.9,2.1-4.4L213,212.6L267.4,241.7z M330.4,161l-41.3-45.8l37.5,48.9
				C327.9,163.1,329.2,162.1,330.4,161z M321.4,168.8l-43.6-43.6l40,46.9C319,171,320.2,169.9,321.4,168.8z M295.9,195.9l-50-36.1
				l47,39.9C293.9,198.5,294.9,197.2,295.9,195.9z M258.1,264.4c0.5-1.5,1.1-3.1,1.6-4.6l-58.8-18.5L258.1,264.4z M312.2,177.6
				l-45.9-41.2l42.5,44.7C310,179.9,311.1,178.7,312.2,177.6z M304.1,186.2l-48-38.7l44.8,42.4C301.9,188.7,303,187.4,304.1,186.2z
				 M273.1,230.4c0.8-1.4,1.6-2.8,2.4-4.3l-55.1-27.7L273.1,230.4z M309.1,539.7l-19.5,25.5l23.3-25.9
				C311.6,539.5,310.3,539.6,309.1,539.7z M289.7,541.8l-11.5,13.5l13.7-13.8C291.2,541.7,290.5,541.7,289.7,541.8z M254.5,275.8
				c0.5-1.6,0.9-3.1,1.4-4.7l-59.7-15.5L254.5,275.8z M245.5,343.8l-61.7,4.1l61.8,0.8C245.6,347.1,245.6,345.4,245.5,343.8z
				 M327.5,538l-25.3,37.2l30.2-37.6C330.8,537.7,329.2,537.8,327.5,538z M343.2,536.6l-28.7,47.2l34.4-47.6
				C347,536.3,345.1,536.4,343.2,536.6z M249,299.7c0.3-1.6,0.6-3.2,0.9-4.8l-61.1-9L249,299.7z M245.6,331.9l-61.8,0.9l61.7,4
				C245.5,335.2,245.6,333.5,245.6,331.9z M251.3,288.1c0.4-1.6,0.8-3.2,1.1-4.7L192,271.2L251.3,288.1z M246.4,319.2l-61.7-2.5
				l61.4,7.4C246.1,322.5,246.3,320.9,246.4,319.2z M247.8,307.4l-61.5-5.7l60.9,10.5C247.3,310.7,247.5,309,247.8,307.4z"/>
			<g>
				<path class="st1" d="M564.2,589.8c-62.2-5.6-126.8-6-186.7-1.2l-1.7-27.4l-1.4-23.6c62.1-4.9,129-4.5,193.4,1.3L564.2,589.8z"/>
			</g>
			<path class="st1" d="M380.1,535.3c-10.8-2.1-113.5,8.8-113.5,8.8l25.6,31.4c45-28.7,84.2-29,84.2-29L380.1,535.3z"/>
			<path class="st1" d="M564.1,535.3c10.8-2.1,121.8,10.2,121.8,10.2l-33.9,30c-45-28.7-84.2-29-84.2-29L564.1,535.3z"/>
			<path class="st2" d="M551.7,241.8c-16,6.3-108.2,17.2-135.1-3.4c24.5,7.9,71,5,89,3c30.8-3.4,29-14.7,8.5-20.4
				c-23-6.3-62.3-7-93-4.8c-41,3.3-64,12.4-64,22.8c2.6,12.9,48.7,24.4,102.4,26c66.6,1.2,120.4-10.7,128-25.9
				c5.1-12.2-28.2-23.4-84.5-25.7c35.9,5.8,69.1,10.9,69.1,21.3c-2.6,12.3-35.9,24.3-92.2,26.2c-64,1.9-120.4-10.8-110.1-26.1
				c5.1-6.7,20.5-12.7,48.7-15.6c-42.1,7.1-56.4,18.3-18.6,28.7C443.2,259.6,523.6,258,551.7,241.8z"/>
			<path class="st3" d="M570.2,215.8c0,0,45.3,10.1,28.9,34.3c-11,16.2-58.5,26.6-127.2,27.2c-63.6,0.6-105.4-7.2-125.1-25
				c-5.2-4.7-7.6-10.9-6-17.6c4.4-18.5,44.2-28.5,84.6-28.9c0,0-54.2-4.9-82.3,14.7c-33.5,23.4,7.6,128.1,37,139.1
				c5,1.9,11.1,6.6,12.8,3.4c27.1,2.8,47.2-2.9,80-3.2c32-0.3,57.1,6.6,78.8,1.3c3.7,5.2-0.9,5.3,14.7-5.6
				c16.6-11.6,46.6-65.7,49.4-98.7C618.7,221.5,570.2,215.8,570.2,215.8z"/>
			<path class="st3" d="M630.1,259.6c0,0,8.1-0.1,22-0.2c13.9-0.1,15.8,60.1-72.2,88.1c0,0,44.3-20.5,51.7-57.8
				c5.6-3.1,10.5-6.1,16.2-9.8l-22.3,0.2L630.1,259.6z"/>
			<path class="st1" d="M602.2,94.9c-16.6-15.4-42.1-4.3-37-22.8C577.1,28.9,405,60.6,459.7,42c57.3-19.5,29.1-1.5,42.4-1.9
				c59.9-1.8,36.2-0.2,36.2-0.2c-5.6,12.4-3-18.3-52.4-15.9c-33.5,1.7-87.9,15.9-87.3,34.1c0.4,12.2,7.8,26.6,75.2,22.4
				c42.6-2.6,65.5,30.2,54.2,42.8c-3.2,3.6-3.4,5.8-10.1,6.4c16.9,14.3,40.5,24.4,51.8,17.7c14.7-8.7,2.9-21.6,2.9-21.6
				s17.5,19.5-2.4,28.7c-22.5,10.3-72.3-24.6-81.3-31.2c-4.5-2.1-9.1-8.9-14.3-12.1C401.7,65.9,301.8,88.9,319.7,143
				c14.6,44.2,109.3,60.9,128.9,65.3c-2.5,0.1-4.9,0.3-7.3,0.5c-15.1,1.5-23.2,1.8-32.8,7.7c-21.8,13.3,55.6,26.2,94.8,17.9
				c39.2-8.3-41.7-14.6-58.2-13.7c-14.5,0.8-12.3-9.9,30.8-12c31-1.6,49,2.3,49,2.3s-141.9-46.8-136.5-80.6
				c3.7-23.3,51.4-1.2,51.4-1.2s-37.7-15.3-44.5,0.4c-2.9,6.6,10.6,17.5,27.6,22.8c5.5-40.4,69.6,26.9,143.8,28.8
				C627.6,182.7,629.1,119.8,602.2,94.9z"/>
			<path class="st3" d="M598,99.4c-16.6-15.4-41.4-4.2-36.3-22.6C573.6,33.6,405,60.6,459.7,42c57.3-19.5,29.1-1.5,42.4-1.9
				C562,38.3,558,1.3,558,1.3c-5.6,12.4-22.7,20.2-72.2,22.7c-33.5,1.7-87.9,15.9-87.3,34.1c0.4,12.2,11.4,19.9,78.8,15.8
				c42.6-2.6,66.8,36.4,55.5,49.1c-3.2,3.6-8.3,6.2-15,6.9c16.9,14.3,40.5,24.4,51.8,17.7c14.7-8.7,2.9-21.6,2.9-21.6
				s17.5,19.5-2.4,28.7c-22.5,10.3-72.3-24.6-81.3-31.2c-4.5-2.1-9.3-4.7-14.5-7.9C409.5,74.7,312,88.7,329.9,142.8
				C344.5,187,429,204,448.6,208.4c-2.5,0.1-4.9,0.3-7.3,0.5c-15.1,1.5-23.2,1.8-32.8,7.7c-21.8,13.3,55.6,26.2,94.8,17.9
				c39.2-8.3-41.7-14.6-58.2-13.7c-14.5,0.8-12.3-9.9,30.8-12c31-1.6,49.2,0.6,49.2,0.6s-142.1-45.1-136.7-78.9
				c3.7-23.3,51.4-1.2,51.4-1.2s-37.7-15.3-44.5,0.4c-2.9,6.6,10.6,17.5,27.6,22.8c5.5-40.4,62.5,22.1,136.6,23.9
				C620.5,177.8,624.9,124.3,598,99.4z"/>
			<g>
				<path class="st1" d="M122.9,404.6c0,0.1,12.8-8.9,40.4-17.8c4.6-1.5,16.4,0.4,21.9-1.1c39.6-7.5,90.5-20.3,157.7-27.2
					c67.1-6.9,146-9.7,230-4.2c41.9,2.8,84.3,9.7,127.6,17.6c1.6,0.3,2.5,0.9,4.1,1.2c25.4,4.7,51.8,7.5,77,14.9
					c2.3,0.7,6.2-1.4,8.6-0.6c13.9,4.7,28.3,11.3,39.3,17.4c0,0.1-21.3-6.6-59.5-14.2c-38.2-7.6-93.3-15.4-159.8-19.7
					c-66.5-4.4-144.5-5.6-227.9-1.4c-41.7,2.1-84.7,5.7-128.3,11.1C210.5,386.3,166.4,393.7,122.9,404.6z"/>
			</g>
			<g>
				<path class="st1" d="M86.3,584.5c0,0.1,22.6-10.5,64.7-22.3c41.9-11.8,103.3-23.9,177.6-30.5c74.3-6.7,161.4-8.6,254.1-1.9
					c46.3,3.4,94,8.8,141.8,17.4c23.9,4.3,47.9,9.3,71.6,15.5c23.7,6.1,47.2,14.1,70,23c0,0.1-23.3-8.4-65.5-16.8
					c-42.2-8.5-103.1-17.3-176.7-22.8c-73.6-5.5-159.8-7.9-252.1-4.1c-46.1,2-93.7,5.5-141.8,11.8c-24,3.2-48.2,7-72.2,12
					C133.7,570.7,109.7,576.7,86.3,584.5z"/>
			</g>
		</g>
		<g>
			<path class="st1" d="M85.1,488.6c9.3,1.8,17.3,8.7,19.9,18.5c3.6,13.7-4.6,27.7-18.1,31.2l-63.5,16.7l0.3-0.8
				c0.9-2.3,2.8-9.2-0.2-20.6L10.4,484c-0.2-0.9-0.4-1.7-0.8-2.5c-3.8-12-9.9-15.8-9.9-15.8l60.5-15.9c12.9-3.4,26.1,4.3,29.5,17.2
				c2.1,7.9,0,16-4.9,21.8L85.1,488.6z M35.6,498.6l22.1-5.8c9.2-2.4,14.9-11.4,12.4-20.7c-3.2-12-12.2-15.6-21.4-13.2l-22.1,5.8
				L35.6,498.6z M85.2,512.5c-2.6-10.1-12.9-17.5-23.1-14.8l-25,6.6l10.1,38.6l25-6.6C82.2,533.6,88.3,524.4,85.2,512.5z"/>
			<path class="st1" d="M113.2,531.7c1-2.2,3.1-9.1,0.6-20.5l-13.7-62c-3.1-14.1-9.8-18.8-9.8-18.8l9.2-2c9-2,18,3.7,20,12.8
				l14.5,65.7c1.7,7.7,4.4,12.5,6.5,15.5l0.2,0.2c1.3,1.5,2.3,2.3,2.8,2.8l0.3,0.2l-30.8,6.8l0.4-0.8L113.2,531.7z"/>
			<path class="st1" d="M221.9,471.9c3.9,21.6-6.2,41.5-34.7,46.7s-45-10-48.9-31.5s6.2-41.5,34.7-46.7S218,450.4,221.9,471.9z
				 M197.1,508.9c15.4-9,9.2-27.8,2-40.3s-20.5-27.4-35.9-18.4s-9,27.9-1.8,40.4s20.5,27.3,35.9,18.3L197.1,508.9z"/>
			<path class="st1" d="M239,490.2c1.9,15.6,71.2-18.2,74.9,12.2c2.2,17.6-19.8,28.5-42.8,31.4c-19.6,2.5-34.6,0.1-42.5-8.4
				c-4.7-5-1.8-13.3,5-14.2l15.1-1.9c0,0-10.4,22.6,21.6,18.6c19.6-2.5,24.3-13,23.4-20.1c-2.3-18.1-61.3,8.5-64-12.8
				c-0.8-6.5,4-10.9,8.7-13.6c-7-3.9-11.7-10.5-12.9-19.9c-3-23.8,16.1-32.2,35.1-34.6c10.2-1.3,18.3-0.6,27.2,3.4l20.3-7.6
				c0,0-2.8,12.5-11.1,13.5l-2.2,0.3c0,0,7.1,4.4,8.4,15.2c2.7,22-16,32.1-35.3,34.5c-8,1-16.8,0.8-24.5-1.5
				c-1.8,1.3-4.8,3.1-4.5,5.2L239,490.2z M261.5,433c-16.6,2.1-16.5,17.9-15.5,26.1c0.8,6.4,4.8,23.7,21.3,21.7
				c16.8-2.1,16.3-19.5,15.5-26.1c-1-8-4.7-23.8-21.5-21.7L261.5,433z"/>
			<path class="st1" d="M404.9,400.7c25.5-1,47,18.8,48,44.3s-18.8,47-44.3,48l-52.9,2.2l0.5-0.7c1.4-2,4.7-8.4,4.2-20.1l-2.1-51.4
				c-0.6-14.4-6.4-20.2-6.4-20.2l52.9-2.2L404.9,400.7z M391.5,407l-13.3,0.5l3.3,80.7l10.7-0.4c21.1-0.9,39.2-18.2,40.3-39.3
				C433.7,424.5,413.2,406.2,391.5,407z"/>
			<path class="st1" d="M505.2,486.6c20.1,0.3,34.1-18.3,34.1-18.3c-5.6,14-21.8,25.6-41.2,25.3c-26.1-0.4-42.2-18.8-41.8-40.7
				c0.4-21.9,17-39.2,43.2-38.8c20.7,0.3,36.8,11.6,41.1,29.6c1.8,7.8-3.9,14.7-11.9,14.6l-50.8-0.9c2.8,14.3,11.3,28.8,27.5,29.1
				L505.2,486.6z M492.1,420.7c-13.7,3.5-16.1,18.1-15.4,30.9l39.1,0.7c2.8,0,4.9-2.8,4.6-5.5c-2.1-15.1-12.6-30-28.1-26.1
				L492.1,420.7z"/>
			<path class="st1" d="M640.6,496.3c20.1,2,40-19.1,40-19.1c-8.2,16.7-27.1,27.3-50.4,25c-31.3-3.1-48-26.9-45.3-53.7
				c2.7-26.8,24-46.3,55.2-43.2c20.9,2.1,39.4,13.1,44.4,28.3c1.9,6-2.8,12.2-9.1,11.6l-12-1.2c6.6-17.4-13.5-35.4-32.4-33.1
				c-21.5,2.6-27,28.4-25,45.9c2,17.6,11.7,37.4,34.4,39.6L640.6,496.3z"/>
			<path class="st1" d="M763.8,499.5c-1.9,11.7,2.6,19.1,2.6,19.1l-13.9-2.2c-5.5-0.9-11-6.3-10.1-11.8c-5.7,5.8-11.9,10-22.7,8.3
				c-26.5-4.2-38.4-24.2-34.9-45.8c3.5-21.6,21-36.9,47.5-32.6c4.3,0.7,9.8,2.4,12.8,4.2c10,6.3,22.1,7.9,33.6,4.8
				c0,0-6.6,5.9-8.7,19.3L763.8,499.5z M720.4,506.8c15.9,2.5,24.2-17.5,26.2-30c3.1-19.3,0.4-34.3-15.5-36.8
				c-12.5-2-23.1,10.9-26.2,30.2c-3.1,19.4,3,34.8,15.5,36.8L720.4,506.8z"/>
			<path class="st1" d="M826.7,424.6c23.3,4.8,24.8,14.8,23.8,19.9c-0.9,4.5-5.3,7.4-9.8,6.5l-11.9-2.5c0,0,10.1-15.4-3.3-18.2
				c-4.8-1-7.5,2.5-8.5,7.3l-2.8,13.4l22.1,4.6l-0.4,0.2c0.4-0.2-9,3.8-22.8,0.9L803,505.5c-2.4,11.5-0.1,18.3,0.9,20.5l0.4,0.8
				l-31-6.4l0.3-0.2c0.5-0.4,1.5-1.3,2.7-2.8l0.2-0.2c2.1-2.9,4.7-7.8,6.3-15.5l10.1-48.9l-14-2.9l1.2-5.7l14,2.9l2.3-11.4
				c1.9-9,12.6-14.5,30.4-10.8L826.7,424.6z"/>
			<path class="st1" d="M861.3,534.6c19.5,4.8,37.3-10.2,37.3-10.2c-8.7,12.4-27,20.1-45.8,15.4c-25.4-6.3-36.9-27.8-31.6-49
				c5.3-21.3,25.4-34.4,50.8-28.1c20.1,5,33.2,19.5,33.4,38.1c0,8-7.1,13.5-14.8,11.6l-49.3-12.2c-0.5,14.6,4.5,30.6,20.3,34.5
				L861.3,534.6z M863.4,467.4c-14.1,0.3-19.8,14-22,26.7l37.9,9.4c2.7,0.7,5.4-1.6,5.7-4.3c1.3-15.2-5.5-32.1-21.5-31.7
				L863.4,467.4z M883.2,444.4c-7.8,5.8-17.8,7.8-27.3,5.5l6-6.1c9.4-9.4,23-13.2,35.8-10l-14.6,10.7L883.2,444.4z"/>
		</g>
		<path class="st4" d="M425,566.9c-0.5,0.5-1.1,0.9-1.7,1.1c-0.6,0.2-1.5,0.3-2.9,0.3h-3.9c-0.6,0-1.1-0.1-1.3-0.2
			c-0.2-0.1-0.4-0.3-0.5-0.5c-0.1-0.2-0.1-0.8-0.1-1.9V558h5.1c1,0,1.7,0.1,2.2,0.3c0.5,0.2,0.8,0.5,1,0.9c0.2,0.3,0.3,1,0.5,2.2
			h0.6v-8.1h-0.6c-0.1,1.3-0.4,2.2-1,2.8c-0.4,0.4-1.3,0.6-2.6,0.6h-5.1v-9.2h6.4c1.2,0,2,0.1,2.4,0.3c0.6,0.2,1,0.6,1.3,1
			c0.3,0.5,0.6,1.3,0.8,2.5h0.7l-0.3-5.1H408v0.6h0.8c1,0,1.6,0.2,2.1,0.7c0.3,0.3,0.4,1.2,0.4,2.7v15.1c0,1.1-0.1,1.9-0.2,2.2
			c-0.1,0.4-0.4,0.6-0.7,0.8c-0.5,0.3-1,0.4-1.6,0.4H408v0.6h17.9l2-5.8h-0.7C426.4,565.1,425.7,566.2,425,566.9z M437.6,560.8
			l-2.5-1.2c-1.1-0.5-1.8-1-2.2-1.5c-0.4-0.5-0.5-1-0.5-1.6c0-0.5,0.2-1,0.7-1.4c0.5-0.4,1.1-0.6,1.9-0.6c1,0,1.9,0.3,2.6,0.9
			c0.7,0.6,1.2,1.7,1.7,3.4h0.6v-5.3h-0.6c-0.1,0.3-0.3,0.5-0.4,0.5s-0.2,0.1-0.4,0.1c-0.2,0-0.6-0.1-1.2-0.3
			c-0.9-0.3-1.6-0.4-2.2-0.4c-1.4,0-2.5,0.4-3.4,1.3c-0.9,0.9-1.3,1.9-1.3,3.2c0,1,0.3,1.8,0.8,2.5c0.5,0.7,1.6,1.4,3.2,2.2
			c1.7,0.8,2.8,1.5,3.3,2c0.6,0.5,0.8,1.2,0.8,2c0,0.6-0.2,1.2-0.7,1.7c-0.5,0.5-1.1,0.7-1.9,0.7c-1.1,0-2.1-0.4-3-1.2
			c-0.9-0.8-1.5-2-1.8-3.6h-0.6v5.6h0.6c0.1-0.3,0.4-0.4,0.6-0.4c0.2,0,0.5,0.1,0.9,0.2c1.2,0.3,2.3,0.5,3.3,0.5
			c1.3,0,2.5-0.4,3.6-1.3c1.1-0.9,1.6-2,1.6-3.4C441,563.4,439.9,561.9,437.6,560.8z M450.5,567.4c-0.4,0.2-0.7,0.4-1.1,0.4
			c-0.5,0-0.8-0.2-1.1-0.5c-0.3-0.4-0.4-1-0.4-2.1v-10.1h3.7v-1.2h-3.7v-5.1h-0.5c-0.5,1.2-0.8,1.9-1.1,2.4
			c-0.5,0.8-1.1,1.5-1.8,2.1c-0.7,0.6-1.3,1-1.9,1.3v0.6h2.5v10.5c0,1.1,0.1,2,0.4,2.5c0.2,0.5,0.6,1,1.1,1.2c0.5,0.3,1,0.4,1.5,0.4
			c0.8,0,1.5-0.3,2.3-0.8c0.7-0.6,1.3-1.4,1.7-2.5h-0.7C451.2,566.9,450.9,567.2,450.5,567.4z M456.4,566.2c-0.5,0-1,0.2-1.3,0.5
			c-0.4,0.4-0.6,0.8-0.6,1.3c0,0.5,0.2,1,0.6,1.3c0.4,0.4,0.8,0.6,1.3,0.6c0.5,0,1-0.2,1.3-0.6c0.4-0.4,0.6-0.8,0.6-1.3
			c0-0.5-0.2-1-0.5-1.3C457.3,566.4,456.9,566.2,456.4,566.2z M479.9,567.9c-0.1-0.3-0.2-1.1-0.2-2.4v-19.6h-0.6l-5.6,2.8l0.3,0.5
			c0.8-0.4,1.3-0.5,1.8-0.5c0.3,0,0.5,0.1,0.8,0.3c0.2,0.2,0.4,0.4,0.4,0.8c0.1,0.5,0.2,1.6,0.2,3.2v12.5c0,1.4-0.1,2.2-0.2,2.5
			c-0.1,0.3-0.3,0.5-0.7,0.7c-0.3,0.2-1,0.3-2.1,0.3v0.6h8.7v-0.6c-1,0-1.7-0.1-2.1-0.3C480.3,568.4,480,568.2,479.9,567.9z
			 M495.6,545.9c-2.3,0-4.1,1-5.5,2.9c-1.2,1.6-1.7,3.4-1.7,5.4c0,2.1,0.6,3.8,1.7,5c1.2,1.3,2.6,1.9,4.2,1.9c1.4,0,3.1-0.6,4.9-1.7
			c-0.5,2-1.3,3.8-2.5,5.5c-1.2,1.7-2.4,2.8-3.7,3.5c-1.3,0.7-2.7,1-4.1,1v0.6h1c2.2,0,4.2-0.6,6-1.8c2.3-1.5,4-3.3,5.3-5.5
			c1.3-2.2,1.9-4.6,1.9-7.2c0-2.9-0.8-5.3-2.5-7.2C499.1,546.7,497.5,545.9,495.6,545.9z M499.4,558.1c-0.5,0.5-1.2,0.8-1.9,1.1
			c-0.7,0.3-1.3,0.4-1.9,0.4c-1.1,0-2-0.5-2.7-1.5c-1-1.4-1.5-3.2-1.5-5.6c0-1.8,0.4-3.2,1.1-4.1c0.8-0.9,1.7-1.4,2.7-1.4
			c0.9,0,1.7,0.3,2.3,1c0.7,0.7,1.2,1.7,1.6,2.9c0.4,1.3,0.6,2.5,0.6,3.6C499.7,555.4,499.6,556.6,499.4,558.1z M514.7,556.7
			c1.9-1.2,3.2-2.3,3.8-3.2c0.6-0.9,0.9-1.8,0.9-2.6c0-1.3-0.6-2.5-1.7-3.5c-1.1-1-2.6-1.5-4.5-1.5c-1.9,0-3.5,0.5-4.6,1.6
			c-1.2,1.1-1.7,2.4-1.7,3.9c0,1,0.3,1.9,0.8,2.8c0.5,0.9,1.7,2.1,3.5,3.6c-1.7,1.2-2.9,2.3-3.6,3.3c-0.7,1-1,2-1,3.1
			c0,1.3,0.5,2.5,1.5,3.6c1.2,1.4,2.9,2.1,5.1,2.1c2,0,3.6-0.6,4.9-1.7c1.2-1.2,1.9-2.5,1.9-4.2c0-1.3-0.4-2.5-1.3-3.7
			C518,559.5,516.7,558.2,514.7,556.7z M511.1,553.7c-0.6-0.5-1-1.1-1.3-1.7c-0.3-0.6-0.5-1.2-0.5-1.8c0-0.9,0.4-1.7,1.1-2.4
			c0.7-0.7,1.7-1,2.8-1c1.2,0,2.1,0.3,2.8,1c0.7,0.7,1,1.6,1,2.8c0,0.9-0.2,1.7-0.5,2.4c-0.4,0.7-1.2,1.7-2.6,2.9L511.1,553.7z
			 M516.4,568c-0.7,0.7-1.7,1-3,1c-1.2,0-2.3-0.4-3.1-1.3c-0.8-0.9-1.2-2.1-1.2-3.5c0-1.1,0.2-2.1,0.7-3c0.5-0.9,1.2-1.8,2.1-2.6
			c2.5,1.9,4.1,3.5,4.9,4.7c0.4,0.6,0.6,1.4,0.6,2.2C517.5,566.4,517.2,567.3,516.4,568z M527.3,552.4l1.5-3.1h7l1.3-2.9h-8.3
			l-4.4,9c2.1,0.1,3.8,0.4,5.1,0.9c1.6,0.7,2.8,1.6,3.7,2.8c0.9,1.2,1.4,2.5,1.4,3.9c0,1.4-0.5,2.7-1.5,3.7c-1,1-2.2,1.5-3.5,1.5
			c-0.9,0-1.7-0.3-2.6-0.9c-0.5-0.4-0.9-0.6-1.1-0.7c-0.2-0.1-0.5-0.1-0.8-0.1c-0.4,0-0.7,0.1-1,0.4c-0.3,0.2-0.4,0.5-0.4,0.8
			c0,0.6,0.3,1.1,0.9,1.6c0.6,0.5,1.6,0.7,3,0.7c1.4,0,2.7-0.3,4-0.9c0.9-0.4,1.8-1,2.5-1.8c0.8-0.7,1.4-1.6,1.9-2.6
			c0.5-1,0.7-2.2,0.7-3.4c0-2.1-0.8-3.9-2.3-5.5C532.7,553.9,530.3,552.8,527.3,552.4z"/>
	</g>
</g>
</svg>
